<svg height="512" viewBox="0 0 64 64" width="512" xmlns="http://www.w3.org/2000/svg"><g id="Glyph"><g id="Glyph-2" data-name="Glyph"><path d="m32 2a29.839 29.839 0 0 0 -16.94 5.26 5.836 5.836 0 0 1 -2.92-3.72 2.257 2.257 0 0 0 -4.28 0 5.955 5.955 0 0 1 -4.32 4.32 2.257 2.257 0 0 0 0 4.28 5.836 5.836 0 0 1 3.72 2.92 29.972 29.972 0 0 0 41.43 41.84 4.571 4.571 0 0 1 1.01 1.81 1.9 1.9 0 0 0 3.6 0 3.983 3.983 0 0 1 2.91-2.91 1.9 1.9 0 0 0 0-3.6 5.445 5.445 0 0 1 -1.43-.69 29.992 29.992 0 0 0 -22.78-49.51zm-21.75 13.81a.26.26 0 0 1 -.5 0 7.955 7.955 0 0 0 -5.56-5.56.26.26 0 0 1 0-.5 7.955 7.955 0 0 0 5.56-5.56.26.26 0 0 1 .5 0 7.955 7.955 0 0 0 5.56 5.56.26.26 0 0 1 0 .5 7.955 7.955 0 0 0 -5.56 5.56zm6.75 23.19a1 1 0 1 1 1-1 1 1 0 0 1 -1 1zm7.28 19.91a28.057 28.057 0 0 1 -5.26-2.11 2.992 2.992 0 1 1 5.26 2.11zm-4.78-25.91a7.5 7.5 0 1 1 7.5-7.5 7.5 7.5 0 0 1 -7.5 7.5zm14.5 16a1 1 0 1 1 1-1 1 1 0 0 1 -1 1zm7-5a3 3 0 1 1 3-3 3.009 3.009 0 0 1 -3 3zm-1-19a5 5 0 1 1 5-5 5 5 0 0 1 -5 5zm15.3 29a5.818 5.818 0 0 0 -3.8 3.8 5.818 5.818 0 0 0 -3.8-3.8 5.818 5.818 0 0 0 3.8-3.8 5.818 5.818 0 0 0 3.8 3.8zm-5.3-18a1 1 0 1 1 1 1 1 1 0 0 1 -1-1zm7-11a1 1 0 1 1 -1-1 1 1 0 0 1 1 1zm-1.97-2.77a1.008 1.008 0 0 1 -1.33-.48 24.037 24.037 0 0 0 -4.74-6.71 1 1 0 1 1 1.42-1.42 26.191 26.191 0 0 1 5.13 7.27 1.017 1.017 0 0 1 -.48 1.34z"/><circle cx="41" cy="41" r="1"/><circle cx="19.5" cy="25.5" r="5.5"/><circle cx="40" cy="20" r="3"/></g></g></svg>