<svg viewBox="0 0 512 512" xmlns="http://www.w3.org/2000/svg"><g id="WEATHER"><path d="m501.22 241.58-14.77-3.39c-37.57-8.62-50.19-55.74-22-82l11.1-10.32c10.75-10 .63-27.68-13.44-23.47l-18.21 5.44c-36.62 11-70.74-23.16-59.78-59.78l5.44-18.21c4.21-14.08-13.46-24.19-23.47-13.44l-11.61 12.53c-26.14 28.06-73.05 15.72-81.91-21.62l-3.94-16.64c-3.4-14.29-23.76-14.22-27 .1l-3.39 14.77c-8.62 37.56-55.74 50.19-82 22l-10.32-11.1c-10-10.75-27.68-.64-23.47 13.44l5.44 18.21c11 36.62-23.16 70.74-59.78 59.78l-18.21-5.44c-14.08-4.21-24.19 13.46-13.44 23.47l12.52 11.64c28.1 26.14 15.72 73-21.62 81.91l-16.64 3.94c-14.29 3.4-14.22 23.76.1 27.05l14.77 3.39c37.56 8.62 50.19 55.74 22 82l-11.1 10.32c-10.75 10-.64 27.68 13.44 23.47l18.21-5.44c36.62-11 70.74 23.16 59.78 59.78l-5.44 18.21c-4.21 14.07 13.46 24.19 23.47 13.44l11.64-12.52c26.14-28.1 73-15.72 81.91 21.62l3.94 16.64c3.4 14.29 23.76 14.22 27.05-.1l3.39-14.77c8.62-37.57 55.74-50.19 82-22l10.32 11.1c10 10.75 27.68.63 23.47-13.44l-5.44-18.21c-11-36.62 23.16-70.74 59.78-59.78l18.21 5.44c14.07 4.21 24.19-13.46 13.44-23.47l-12.52-11.64c-28.1-26.14-15.72-73.05 21.62-81.91l16.64-3.94c14.21-3.41 14.14-23.77-.18-27.06zm-84.66 82.26a174.82 174.82 0 1 1 13.7-67.84 173.7 173.7 0 0 1 -13.7 67.84z"/><path d="m256 99.74a156.26 156.26 0 1 0 156.26 156.26 156.26 156.26 0 0 0 -156.26-156.26zm47.81 268.49a14 14 0 0 1 -11.72-25.43 102.19 102.19 0 0 0 51.64-53.45 14 14 0 0 1 25.82 10.82 130.09 130.09 0 0 1 -65.74 68.06z"/></g></svg>